<svg version="1" xmlns="http://www.w3.org/2000/svg" width="346.667" height="346.667" viewBox="0 0 260.000000 260.000000"><path d="M112.8 10.4c-8.7 5.1-16 9.4-16.2 9.7-.3.3 7.1 4.9 16.5 10.3l17 9.8 17-9.7c9.3-5.4 16.6-10.1 16.2-10.5-2-1.8-32.6-19-33.6-18.9-.7 0-8.3 4.2-16.9 9.3zM43.2 50.8c-14.2 8.3-16.1 9.7-15 11.1 1.2 1.4 1.1 1.4-.5.2-.9-.8-2-1.2-2.2-.9-.2.2-.5 31.4-.5 69.2l-.1 68.8 52.7 30.4 52.8 30.4 52.2-30.2 52.1-30.3.7-9.5c.3-5.2.6-36.3.6-69V61.5l-17.6-10c-9.7-5.5-18.1-9.9-18.7-9.7-1.8.5-32.7 18.7-32.7 19.2 0 .3 7.3 4.8 16.3 9.9l16.2 9.3 6.8-3.6c8.2-4.4 9-4 1 .5-3.2 1.8-6.2 3.8-6.8 4.4-1.1 1.3-26.9 16.1-38.5 22.2-4.1 2.2-9.7 5.2-12.5 6.8-2.7 1.5-4.5 2.4-4 1.8.6-.6 5-3.3 9.8-6.1l8.8-5-14.3-8.2c-7.9-4.6-15.5-8.9-16.9-9.8-2.5-1.4-3.2-1.1-20 8.7-14.4 8.4-17.7 10-19.4 9.2-6.7-3.2-32.9-18.9-33.2-19.8-.2-.6.2-1.3.9-1.5 1.9-.4 32.7-18.2 32.7-18.8.1-.5-9.7-6.1-27.8-16.1l-6.6-3.6-16.3 9.5zm186.8 13c-6.8 4.2-16.6 9.6-15.7 8.7 1.1-1.3 18-11.3 19.2-11.4.6 0-1 1.2-3.5 2.7zm-86.5 50.1c-1.6 1.4-10.5 6.3-10.5 5.8s10.1-6.6 11-6.7c.2 0 0 .4-.5.9z"/></svg>